<svg width="320" height="320" viewBox="0 0 320 320" fill="none" xmlns="http://www.w3.org/2000/svg">
  <defs>
    <radialGradient id="bg" cx="0" cy="0" r="1" gradientUnits="userSpaceOnUse" gradientTransform="translate(160 110) rotate(90) scale(214)">
      <stop offset="0" stop-color="#E4D6C2"/>
      <stop offset="1" stop-color="#B99C79"/>
    </radialGradient>
    <radialGradient id="halo" cx="0" cy="0" r="1" gradientUnits="userSpaceOnUse" gradientTransform="translate(160 118) rotate(90) scale(110)">
      <stop offset="0" stop-color="#F5ECDD"/>
      <stop offset="1" stop-color="#D8BE98"/>
    </radialGradient>
    <linearGradient id="robe" x1="160" y1="214" x2="160" y2="320" gradientUnits="userSpaceOnUse">
      <stop stop-color="#D9C1A0"/>
      <stop offset="1" stop-color="#9D7D5D"/>
    </linearGradient>
    <filter id="grain" x="-20%" y="-20%" width="140%" height="140%">
      <feTurbulence type="fractalNoise" baseFrequency="0.82" numOctaves="2" stitchTiles="stitch"/>
      <feColorMatrix type="saturate" values="0"/>
      <feComponentTransfer>
        <feFuncA type="table" tableValues="0 0.06"/>
      </feComponentTransfer>
    </filter>
  </defs>
  <rect width="320" height="320" rx="40" fill="url(#bg)"/>
  <circle cx="160" cy="120" r="108" fill="url(#halo)" opacity="0.94"/>
  <rect width="320" height="320" rx="40" fill="#FFF9F0" opacity="0.05"/>
  <rect width="320" height="320" rx="40" filter="url(#grain)"/>
  <path d="M72 320C82 265 116 222 160 222C204 222 238 265 248 320H72Z" fill="url(#robe)"/>
  <path d="M95 320C105 275 126 244 160 244C194 244 215 275 225 320H95Z" fill="#C5AA86" opacity="0.82"/>
  <path d="M126 222C130 209 143 199 160 199C177 199 190 209 194 222L183 248H137L126 222Z" fill="#C98E67"/>
  <path d="M95 140C95 95 124 63 160 63C196 63 225 95 225 140C225 182 198 212 160 212C122 212 95 182 95 140Z" fill="#E2B186"/>
  <path d="M110 142C110 106 132 78 160 78C188 78 210 106 210 142C210 175 188 201 160 201C132 201 110 175 110 142Z" fill="#F0C9A3"/>
  <path d="M110 110C121 82 140 61 160 61C180 61 199 82 210 110C200 101 191 95 181 89C172 84 167 79 160 79C153 79 148 84 139 89C129 95 120 101 110 110Z" fill="#2F2B28"/>
  <path d="M120 92C131 78 144 68 160 68C176 68 189 78 200 92" stroke="#4C433B" stroke-width="18" stroke-linecap="round" opacity="0.85"/>
  <path d="M123 128C130 123 139 120 149 120" stroke="#3B322C" stroke-width="5" stroke-linecap="round"/>
  <path d="M171 120C181 120 190 123 197 128" stroke="#3B322C" stroke-width="5" stroke-linecap="round"/>
  <path d="M142 146C146 144 149 143 152 143C155 143 158 144 161 146" stroke="#49352F" stroke-width="4" stroke-linecap="round"/>
  <path d="M170 146C174 144 177 143 180 143C183 143 186 144 189 146" stroke="#49352F" stroke-width="4" stroke-linecap="round"/>
  <path d="M160 145C157 157 157 167 160 177" stroke="#C18F6D" stroke-width="3.4" stroke-linecap="round"/>
  <path d="M147 184C153 187 167 187 173 184" stroke="#9B6E5B" stroke-width="3.4" stroke-linecap="round"/>
  <path d="M127 168C134 177 145 182 160 182C175 182 186 177 193 168" stroke="#5A4338" stroke-width="4" stroke-linecap="round"/>
  <path d="M123 172C134 194 146 212 160 212C174 212 186 194 197 172C188 177 181 179 174 181C168 183 164 187 160 187C156 187 152 183 146 181C139 179 132 177 123 172Z" fill="#2E2A27"/>
  <path d="M134 189C141 207 149 228 160 228C171 228 179 207 186 189C178 193 171 196 166 199C162 201 161 205 160 205C159 205 158 201 154 199C149 196 142 193 134 189Z" fill="#E3D7CA" opacity="0.85"/>
  <path d="M134 157C142 162 150 165 160 165C170 165 178 162 186 157" stroke="#7C5748" stroke-width="3.3" stroke-linecap="round"/>
</svg>
